<mxfile host="app.diagrams.net" modified="2023-07-05T13:54:50.772Z" agent="Mozilla/5.0 (Windows NT 10.0; Win64; x64) AppleWebKit/537.36 (KHTML, like Gecko) Chrome/114.0.0.0 Safari/537.36 Edg/114.0.1823.67" etag="3wJWpNiNd0Aj7CpmNnB3" version="21.5.2" type="device">
  <diagram name="Page-1" id="U431ab00ZjAxC29zFhv9">
    <mxGraphModel dx="1008" dy="610" grid="1" gridSize="10" guides="1" tooltips="1" connect="1" arrows="1" fold="1" page="1" pageScale="1" pageWidth="850" pageHeight="1100" math="0" shadow="0">
      <root>
        <mxCell id="0" />
        <mxCell id="1" parent="0" />
        <mxCell id="hXQOS2bSTQaqGvkswqBU-1" value="lcluster&lt;br&gt;0" style="rounded=0;whiteSpace=wrap;html=1;" parent="1" vertex="1">
          <mxGeometry x="250" y="670" width="80" height="50" as="geometry" />
        </mxCell>
        <mxCell id="hXQOS2bSTQaqGvkswqBU-2" value="lcluster&lt;br&gt;1" style="rounded=0;whiteSpace=wrap;html=1;" parent="1" vertex="1">
          <mxGeometry x="330" y="670" width="80" height="50" as="geometry" />
        </mxCell>
        <mxCell id="hXQOS2bSTQaqGvkswqBU-3" value="lcluster&lt;br&gt;2" style="rounded=0;whiteSpace=wrap;html=1;" parent="1" vertex="1">
          <mxGeometry x="410" y="670" width="80" height="50" as="geometry" />
        </mxCell>
        <mxCell id="hXQOS2bSTQaqGvkswqBU-4" value="lcluster&lt;br&gt;n" style="rounded=0;whiteSpace=wrap;html=1;" parent="1" vertex="1">
          <mxGeometry x="560" y="670" width="80" height="50" as="geometry" />
        </mxCell>
        <mxCell id="hXQOS2bSTQaqGvkswqBU-5" value="..." style="rounded=0;whiteSpace=wrap;html=1;" parent="1" vertex="1">
          <mxGeometry x="490" y="670" width="70" height="50" as="geometry" />
        </mxCell>
        <mxCell id="hXQOS2bSTQaqGvkswqBU-6" value="pcluster&lt;br&gt;size = 8192" style="rounded=0;whiteSpace=wrap;html=1;" parent="1" vertex="1">
          <mxGeometry x="330" y="770" width="150" height="40" as="geometry" />
        </mxCell>
        <mxCell id="hXQOS2bSTQaqGvkswqBU-7" value="" style="endArrow=classic;html=1;rounded=0;exitX=0;exitY=1;exitDx=0;exitDy=0;entryX=0;entryY=0;entryDx=0;entryDy=0;" parent="1" source="hXQOS2bSTQaqGvkswqBU-1" target="hXQOS2bSTQaqGvkswqBU-6" edge="1">
          <mxGeometry width="50" height="50" relative="1" as="geometry">
            <mxPoint x="500" y="710" as="sourcePoint" />
            <mxPoint x="550" y="660" as="targetPoint" />
          </mxGeometry>
        </mxCell>
        <mxCell id="hXQOS2bSTQaqGvkswqBU-8" value="" style="endArrow=classic;html=1;rounded=0;exitX=0.25;exitY=1;exitDx=0;exitDy=0;entryX=1;entryY=0;entryDx=0;entryDy=0;" parent="1" source="hXQOS2bSTQaqGvkswqBU-3" target="hXQOS2bSTQaqGvkswqBU-6" edge="1">
          <mxGeometry width="50" height="50" relative="1" as="geometry">
            <mxPoint x="500" y="710" as="sourcePoint" />
            <mxPoint x="550" y="660" as="targetPoint" />
          </mxGeometry>
        </mxCell>
        <mxCell id="hXQOS2bSTQaqGvkswqBU-9" value="" style="endArrow=none;html=1;rounded=0;exitX=0.25;exitY=0;exitDx=0;exitDy=0;dashed=1;" parent="1" source="hXQOS2bSTQaqGvkswqBU-3" edge="1">
          <mxGeometry width="50" height="50" relative="1" as="geometry">
            <mxPoint x="500" y="610" as="sourcePoint" />
            <mxPoint x="430" y="720" as="targetPoint" />
          </mxGeometry>
        </mxCell>
        <mxCell id="hXQOS2bSTQaqGvkswqBU-11" value="" style="endArrow=classic;html=1;rounded=0;exitX=1;exitY=1;exitDx=0;exitDy=0;entryX=1;entryY=0;entryDx=0;entryDy=0;" parent="1" source="hXQOS2bSTQaqGvkswqBU-3" edge="1">
          <mxGeometry width="50" height="50" relative="1" as="geometry">
            <mxPoint x="440" y="590" as="sourcePoint" />
            <mxPoint x="560" y="770" as="targetPoint" />
          </mxGeometry>
        </mxCell>
        <mxCell id="hXQOS2bSTQaqGvkswqBU-12" value="type&lt;br&gt;HEAD" style="rounded=0;whiteSpace=wrap;html=1;" parent="1" vertex="1">
          <mxGeometry x="60" y="570" width="70" height="30" as="geometry" />
        </mxCell>
        <mxCell id="hXQOS2bSTQaqGvkswqBU-13" value="clusterofs&lt;br&gt;0" style="rounded=0;whiteSpace=wrap;html=1;" parent="1" vertex="1">
          <mxGeometry x="130" y="570" width="70" height="30" as="geometry" />
        </mxCell>
        <mxCell id="hXQOS2bSTQaqGvkswqBU-14" value="blkaddr&lt;br&gt;0x233000" style="rounded=0;whiteSpace=wrap;html=1;" parent="1" vertex="1">
          <mxGeometry x="200" y="570" width="70" height="30" as="geometry" />
        </mxCell>
        <mxCell id="hXQOS2bSTQaqGvkswqBU-15" value="0x233000" style="text;html=1;align=center;verticalAlign=middle;resizable=0;points=[];autosize=1;strokeColor=none;fillColor=none;" parent="1" vertex="1">
          <mxGeometry x="290" y="810" width="80" height="30" as="geometry" />
        </mxCell>
        <mxCell id="hXQOS2bSTQaqGvkswqBU-16" value="type&lt;br&gt;NONHEAD" style="rounded=0;whiteSpace=wrap;html=1;" parent="1" vertex="1">
          <mxGeometry x="300" y="570" width="70" height="30" as="geometry" />
        </mxCell>
        <mxCell id="hXQOS2bSTQaqGvkswqBU-17" value="clusterofs&lt;br&gt;0" style="rounded=0;whiteSpace=wrap;html=1;" parent="1" vertex="1">
          <mxGeometry x="370" y="570" width="70" height="30" as="geometry" />
        </mxCell>
        <mxCell id="hXQOS2bSTQaqGvkswqBU-18" value="delta0&lt;br&gt;0x2 | 1&amp;lt;&amp;lt;11" style="rounded=0;whiteSpace=wrap;html=1;" parent="1" vertex="1">
          <mxGeometry x="440" y="570" width="70" height="30" as="geometry" />
        </mxCell>
        <mxCell id="hXQOS2bSTQaqGvkswqBU-19" value="delta1&lt;br&gt;1" style="rounded=0;whiteSpace=wrap;html=1;" parent="1" vertex="1">
          <mxGeometry x="510" y="570" width="70" height="30" as="geometry" />
        </mxCell>
        <mxCell id="hXQOS2bSTQaqGvkswqBU-20" value="0" style="text;html=1;align=center;verticalAlign=middle;resizable=0;points=[];autosize=1;strokeColor=none;fillColor=none;" parent="1" vertex="1">
          <mxGeometry x="240" y="720" width="30" height="30" as="geometry" />
        </mxCell>
        <mxCell id="hXQOS2bSTQaqGvkswqBU-21" value="4096" style="text;html=1;align=center;verticalAlign=middle;resizable=0;points=[];autosize=1;strokeColor=none;fillColor=none;" parent="1" vertex="1">
          <mxGeometry x="310" y="720" width="50" height="30" as="geometry" />
        </mxCell>
        <mxCell id="hXQOS2bSTQaqGvkswqBU-22" value="" style="endArrow=classic;html=1;rounded=0;exitX=0;exitY=0;exitDx=0;exitDy=0;entryX=0;entryY=1;entryDx=0;entryDy=0;dashed=1;dashPattern=12 12;" parent="1" source="hXQOS2bSTQaqGvkswqBU-1" target="hXQOS2bSTQaqGvkswqBU-12" edge="1">
          <mxGeometry width="50" height="50" relative="1" as="geometry">
            <mxPoint x="330" y="650" as="sourcePoint" />
            <mxPoint x="380" y="600" as="targetPoint" />
          </mxGeometry>
        </mxCell>
        <mxCell id="hXQOS2bSTQaqGvkswqBU-23" value="" style="endArrow=classic;html=1;rounded=0;exitX=1;exitY=0;exitDx=0;exitDy=0;entryX=1;entryY=1;entryDx=0;entryDy=0;dashed=1;dashPattern=12 12;" parent="1" source="hXQOS2bSTQaqGvkswqBU-1" target="hXQOS2bSTQaqGvkswqBU-14" edge="1">
          <mxGeometry width="50" height="50" relative="1" as="geometry">
            <mxPoint x="330" y="650" as="sourcePoint" />
            <mxPoint x="380" y="600" as="targetPoint" />
          </mxGeometry>
        </mxCell>
        <mxCell id="hXQOS2bSTQaqGvkswqBU-24" value="" style="endArrow=classic;html=1;rounded=0;entryX=0;entryY=1;entryDx=0;entryDy=0;dashed=1;dashPattern=12 12;" parent="1" target="hXQOS2bSTQaqGvkswqBU-16" edge="1">
          <mxGeometry width="50" height="50" relative="1" as="geometry">
            <mxPoint x="330" y="670" as="sourcePoint" />
            <mxPoint x="380" y="600" as="targetPoint" />
          </mxGeometry>
        </mxCell>
        <mxCell id="hXQOS2bSTQaqGvkswqBU-25" value="" style="endArrow=classic;html=1;rounded=0;entryX=1;entryY=1;entryDx=0;entryDy=0;exitX=1;exitY=0;exitDx=0;exitDy=0;dashed=1;dashPattern=12 12;" parent="1" source="hXQOS2bSTQaqGvkswqBU-2" target="hXQOS2bSTQaqGvkswqBU-19" edge="1">
          <mxGeometry width="50" height="50" relative="1" as="geometry">
            <mxPoint x="390" y="660" as="sourcePoint" />
            <mxPoint x="370" y="580" as="targetPoint" />
          </mxGeometry>
        </mxCell>
        <mxCell id="hXQOS2bSTQaqGvkswqBU-26" value="0x235000" style="text;html=1;align=center;verticalAlign=middle;resizable=0;points=[];autosize=1;strokeColor=none;fillColor=none;" parent="1" vertex="1">
          <mxGeometry x="440" y="810" width="80" height="30" as="geometry" />
        </mxCell>
        <mxCell id="hXQOS2bSTQaqGvkswqBU-27" value="type&lt;br&gt;HEAD" style="rounded=0;whiteSpace=wrap;html=1;" parent="1" vertex="1">
          <mxGeometry x="610" y="570" width="70" height="30" as="geometry" />
        </mxCell>
        <mxCell id="hXQOS2bSTQaqGvkswqBU-28" value="clusterofs&lt;br&gt;1024" style="rounded=0;whiteSpace=wrap;html=1;" parent="1" vertex="1">
          <mxGeometry x="680" y="570" width="70" height="30" as="geometry" />
        </mxCell>
        <mxCell id="hXQOS2bSTQaqGvkswqBU-29" value="blkaddr&lt;br&gt;0x235000" style="rounded=0;whiteSpace=wrap;html=1;" parent="1" vertex="1">
          <mxGeometry x="750" y="570" width="70" height="30" as="geometry" />
        </mxCell>
        <mxCell id="hXQOS2bSTQaqGvkswqBU-30" value="" style="endArrow=classic;html=1;rounded=0;entryX=1;entryY=1;entryDx=0;entryDy=0;exitX=0;exitY=0;exitDx=0;exitDy=0;dashed=1;dashPattern=12 12;" parent="1" source="hXQOS2bSTQaqGvkswqBU-5" target="hXQOS2bSTQaqGvkswqBU-29" edge="1">
          <mxGeometry width="50" height="50" relative="1" as="geometry">
            <mxPoint x="420" y="680" as="sourcePoint" />
            <mxPoint x="600" y="600" as="targetPoint" />
          </mxGeometry>
        </mxCell>
        <mxCell id="hXQOS2bSTQaqGvkswqBU-31" value="" style="endArrow=classic;html=1;rounded=0;entryX=0;entryY=1;entryDx=0;entryDy=0;exitX=0;exitY=0;exitDx=0;exitDy=0;dashed=1;dashPattern=12 12;" parent="1" source="hXQOS2bSTQaqGvkswqBU-3" target="hXQOS2bSTQaqGvkswqBU-27" edge="1">
          <mxGeometry width="50" height="50" relative="1" as="geometry">
            <mxPoint x="420" y="680" as="sourcePoint" />
            <mxPoint x="590" y="610" as="targetPoint" />
          </mxGeometry>
        </mxCell>
        <mxCell id="hXQOS2bSTQaqGvkswqBU-32" value="8192" style="text;html=1;align=center;verticalAlign=middle;resizable=0;points=[];autosize=1;strokeColor=none;fillColor=none;" parent="1" vertex="1">
          <mxGeometry x="390" y="720" width="50" height="30" as="geometry" />
        </mxCell>
        <mxCell id="hXQOS2bSTQaqGvkswqBU-33" value="pcluster&lt;br&gt;size = 4096" style="rounded=0;whiteSpace=wrap;html=1;" parent="1" vertex="1">
          <mxGeometry x="480" y="770" width="80" height="40" as="geometry" />
        </mxCell>
      </root>
    </mxGraphModel>
  </diagram>
</mxfile>
